<?xml version="1.0" standalone="no"?>
<!DOCTYPE svg PUBLIC "-//W3C//DTD SVG 1.1//EN" "http://www.w3.org/Graphics/SVG/1.1/DTD/svg11.dtd">
<svg xmlns="http://www.w3.org/2000/svg">
<metadata>Copyright (C) 2016 by original authors @ fontello.com</metadata>
<defs>
<font id="icons-viport" horiz-adv-x="1000" >
<font-face font-family="icons-viport" font-weight="400" font-stretch="normal" units-per-em="1000" ascent="850" descent="-150" />
<missing-glyph horiz-adv-x="1000" />
<glyph glyph-name="9+" unicode="&#xe800;" d="M1000 350a500 500 0 1 0-500 500 500 500 0 0 0 500-500z m-491-184q-53-56-155-57h-17l0-40h9q135 0 200 77t66 231v42q0 110-48 170a160 160 0 0 1-133 60 160 160 0 0 1-90-26 170 170 0 0 1-60-71 237 237 0 0 1-22-102 228 228 0 0 1 20-96 163 163 0 0 1 57-70 149 149 0 0 1 86-25 166 166 0 0 1 80 20 176 176 0 0 1 62 57q-2-113-55-170z m-169 177a170 170 0 0 0-34 108 175 175 0 0 0 34 113 111 111 0 0 0 91 44 116 116 0 0 0 97-48 218 218 0 0 0 37-134v-27a151 151 0 0 0-53-72 137 137 0 0 0-85-28 108 108 0 0 0-87 44z m389 276v-88h-88v-23h88v-89h25v89h87v23h-87v88z" horiz-adv-x="1000" />

<glyph glyph-name="album" unicode="&#xe801;" d="M1000-150h-786v1000h786z m-786 1000h-214v-1000h214z m-143-71h72v-858h-72z" horiz-adv-x="1000" />

<glyph glyph-name="blog" unicode="&#xe802;" d="M1231 33h-1180a51 51 0 0 0-51 51v513a51 51 0 0 0 51 51h1180a51 51 0 0 0 51-51v-513a51 51 0 0 0-51-51z m-1103 779h1026m0 38h-1026v-77h1026z m-1026-962h1026m0 39h-1026v-77h1026z" horiz-adv-x="1282" />

<glyph glyph-name="buscar" unicode="&#xe803;" d="M502-69a456 456 0 0 0-287 101l-4 3s-38 35-40 36a463 463 0 0 0-57 72 460 460 0 1 0 713-79h0a457 457 0 0 0-325-133z m0 865a406 406 0 0 1-286-692 406 406 0 0 1 573 573 403 403 0 0 1-287 119z m-502-909l40-36 171 185-40 36z" horiz-adv-x="961" />

<glyph glyph-name="calendario" unicode="&#xe804;" d="M0-39a111 111 0 0 1 111-111h778a111 111 0 0 1 111 111v645h-1000z m439 291a107 107 0 0 0-69 97c0 69 58 116 134 116 84 0 126-53 126-107a111 111 0 0 0-72-101v-2c54-23 88-60 88-111 0-76-65-126-148-126-90 0-145 54-145 117 0 55 33 93 86 116z m-13 101a69 69 0 0 0 75 70 67 67 0 0 0 73-71c0-39-28-67-66-79-50 14-82 37-82 80z m-12-211c0 41 27 75 78 89 58-17 95-42 95-95 0-44-34-77-87-77a80 80 0 0 0-86 83z m586 597v-67h-1000v67a111 111 0 0 0 111 111h778a111 111 0 0 0 111-111z" horiz-adv-x="1000" />

<glyph glyph-name="candado" unicode="&#xe805;" d="M671 529a78 78 0 0 1-20 12l-62 7h-480l-62-7h0a78 78 0 0 1-47-71v-543a78 78 0 0 1 78-77h542a78 78 0 0 1 78 77v543a78 78 0 0 1-27 59z m-279-343h0a70 70 0 0 0-12-7h0v-93h-62v93a70 70 0 1 0 74 7z m-283 362l-62-7c0 3 0 5 0 7a302 302 0 0 0 604 0c0-2 0-4 0-7l-62 7h0a240 240 0 0 1-480 0z" horiz-adv-x="698" />

<glyph glyph-name="comentario" unicode="&#xe806;" d="M377-150l-133 207h-88a157 157 0 0 0-156 156v481a157 157 0 0 0 156 156h962a157 157 0 0 0 156-156v-481a157 157 0 0 0-156-156h-595z m-221 928a84 84 0 0 1-84-84v-481a84 84 0 0 1 84-84h128l96-150 106 150h632a84 84 0 0 1 84 84v481a84 84 0 0 1-84 84z" horiz-adv-x="1274" />

<glyph glyph-name="comentario_1" unicode="&#xe807;" d="M1203 48h-682l-140-198-128 198h-119a134 134 0 0 0-134 134v534a134 134 0 0 0 134 134h1069a134 134 0 0 0 133-134v-534a134 134 0 0 0-133-134z" horiz-adv-x="1336" />

<glyph glyph-name="continuar" unicode="&#xe808;" d="M593 350l-593 427v73l653-468v-63l-653-469v73z" horiz-adv-x="653" />

<glyph glyph-name="correo" unicode="&#xe809;" d="M1331 842l-631-451-630 450h0v0a108 108 0 0 0 41 9h1178a111 111 0 0 0 42-8z m52-45l-683-489-683 489a111 111 0 0 1-17-58v-778a111 111 0 0 1 111-111h1178a111 111 0 0 1 111 111v778a111 111 0 0 1-17 58z" horiz-adv-x="1400" />

<glyph glyph-name="cuaderno" unicode="&#xe80a;" d="M789 850h-669v-1000h669a96 96 0 0 1 91 100v800a96 96 0 0 1-91 100z m-789-1000v1000h60v-1000z m60 1000h60v-60h-60z m0-940h60v-60h-60z" horiz-adv-x="880" />

<glyph glyph-name="desplegar" unicode="&#xe80b;" d="M1038-150l-1038 1000h302l849-843h9l851 843h302l-1041-1000z" horiz-adv-x="2310" />

<glyph glyph-name="dinero" unicode="&#xe80c;" d="M378 161a102 102 0 0 1-28 74 248 248 0 0 1-95 53 742 742 0 0 0-103 43q-123 66-123 194a201 201 0 0 0 54 144 226 226 0 0 0 144 66v115h84v-116a208 208 0 0 0 141-77 266 266 0 0 0 50-168h-127a166 166 0 0 1-30 105 97 97 0 0 1-81 38 109 109 0 0 1-78-27 104 104 0 0 1-29-78 98 98 0 0 1 28-73 273 273 0 0 1 96-52 808 808 0 0 0 105-46 272 272 0 0 0 65-50 191 191 0 0 0 41-62 220 220 0 0 0 14-83 196 196 0 0 0-55-144 240 240 0 0 0-151-65v-103h-84v103q-104 12-160 75a243 243 0 0 0-56 167h127a145 145 0 0 1 33-103 122 122 0 0 1 95-36 130 130 0 0 1 90 29 100 100 0 0 1 33 77z" horiz-adv-x="506" />

<glyph glyph-name="elegirfoto" unicode="&#xe80d;" d="M476 374h-476v476h476z m524 476h-476v-476h476z m-524-524h-476v-476h476z m470-136l-34 34-221-221-79 78-33-34 112-112z" horiz-adv-x="1000" />

<glyph glyph-name="explorar" unicode="&#xe80e;" d="M727 417a367 367 0 0 0-190-322 358 358 0 0 0-101-37c-10-2-45-4-45-4h-52s-36 4-48 7-32 8-42 11h0a364 364 0 0 0 0 690h0a690 690 0 0 0 89 18h52l15-2h0a364 364 0 0 0 322-361z m-30-312c78 74 117 177 117 308s-39 235-117 310c-132 130-326 127-333 127l-26 0v-71h52v17c54-4 181-22 271-111 66-65 101-157 101-272s-34-207-100-271c-91-87-219-103-272-106v18h-52v-70h52s190 7 307 120z m-293-167m-14 47h-52v-83h52z m73-83h-199v-52h199z m-102 326l-8 6c-16 11-68 52-84 102a148 148 0 0 0-5 44c0 18 0 35-15 44a48 48 0 0 1-41 0 63 63 0 0 1-30-30 146 146 0 0 1-17 68 88 88 0 0 1-15 20 317 317 0 0 0-31 36c-22 30-34 50-33 59 2 24 28 47 38 55l1 2a151 151 0 0 1 49 40 65 65 0 0 1 0 51l-2-1a75 75 0 0 0-12-8 46 46 0 0 0 0-34 142 142 0 0 0-39-31 13 13 0 0 1-6-3l-7-6 0 0c-14-12-38-34-40-63 0-7-1-20 37-71a333 333 0 0 1 32-38 72 72 0 0 0 12-16 163 163 0 0 0 14-98c-1-14-2-23 8-25s11 8 14 20c5 17 13 48 34 58a32 32 0 0 0 25 0c7-4 7-12 7-29a165 165 0 0 1 6-49c17-56 73-100 90-112l9-6c9-6 21-14 21-19 0 0-3-6-29-20a165 165 0 0 0-29-12 42 42 0 0 1-17-9c-12-12-16-50-7-93a85 85 0 0 0 10-3c2 0 5 0 8-1-12 47-4 80 1 84a27 27 0 0 0 10 5 180 180 0 0 1 31 14c32 17 37 26 38 33 2 15-12 25-28 36z m296 407a76 76 0 0 0-12 10 103 103 0 0 1-47-3 87 87 0 0 1-52-62 60 60 0 0 1-1-25 65 65 0 0 0 0-22 92 92 0 0 0-27-56 52 52 0 0 0-23-11c-9-3-22-8-42-16-40-18-49-24-52-30a90 90 0 0 1-18-71c5-23 21-55 44-55 13 0 20 13 26 24s10 17 17 19a45 45 0 0 0 41-34c5-25-20-50-35-66a139 139 0 0 0-23-20 35 35 0 0 1-17-21 53 53 0 0 1 16-46 63 63 0 0 0 17-36 201 201 0 0 0-17-53l6 1a81 81 0 0 0 15 6 157 157 0 0 1 13 46 78 78 0 0 1-20 47c-10 14-16 22-13 31 1 5 3 6 10 11a156 156 0 0 1 25 22c18 18 45 48 38 81-5 29-36 52-60 48a47 47 0 0 1-30-28c-4-7-8-14-12-14h0c-8 0-21 20-25 41a73 73 0 0 0 14 56c2 2 7 8 46 25 20 8 33 12 42 15a68 68 0 0 1 29 16 109 109 0 0 1 32 65 83 83 0 0 1 0 27 43 43 0 0 0 0 19 71 71 0 0 0 41 50 114 114 0 0 0 59-3 87 87 0 0 0-5 12z" horiz-adv-x="814" />

<glyph glyph-name="filtrar" unicode="&#xe80f;" d="M2137 743h-2137v107h2137z m-356-211h-1425v-107h1425z m-356-287h-713v-107h713z m-268-288h-178v-107h178z" horiz-adv-x="2137" />

<glyph glyph-name="fotos" unicode="&#xe810;" d="M1000-150h-1000v1000h1000z m-942 58h884v884h-884z m0 119v-119h626l-356 388-270-269m624-119h260v472l-146 130-317-380z m-624 645c286 36 301 239 301 239h-301z" horiz-adv-x="1000" />

<glyph glyph-name="fotostodas" unicode="&#xe811;" d="M476 374h-476v476h476z m524 476h-476v-476h476z m-524-524h-476v-476h476z m524 0h-476v-476h476z" horiz-adv-x="1000" />

<glyph glyph-name="home" unicode="&#xe812;" d="M0-150v636l455 364 454-364v-636z" horiz-adv-x="909" />

<glyph glyph-name="informacion" unicode="&#xe813;" d="M0 767a90 90 0 0 0 20 59 71 71 0 0 0 58 24 72 72 0 0 0 59-24 89 89 0 0 0 21-59 86 86 0 0 0-21-58 73 73 0 0 0-59-23 72 72 0 0 0-58 23 87 87 0 0 0-20 58z m143-917h-132v740h132z" horiz-adv-x="157" />

<glyph glyph-name="limpiar" unicode="&#xe814;" d="M2400 650h-1600v200h1600z m-400-200h-1600v-200h1600z m-400-400h-1600v-200h1600z" horiz-adv-x="2400" />

<glyph glyph-name="lugares" unicode="&#xe815;" d="M1502-150h-1502l563 725h376z m-939 1000v-275h376v275z m119-370l-261-578h662l-261 578" horiz-adv-x="1502" />

<glyph glyph-name="maletin" unicode="&#xe816;" d="M1043-150h-937a106 106 0 0 0-106 106v554a106 106 0 0 0 106 106h937a106 106 0 0 0 106-106v-554a106 106 0 0 0-106-106z m-468 936a255 255 0 0 0 240-170h67a319 319 0 0 1-615 0h67a255 255 0 0 0 241 170z" horiz-adv-x="1149" />

<glyph glyph-name="mas" unicode="&#xe817;" d="M487 375h454v-51h-454v-474h-52v474h-435v51h435v475h52z" horiz-adv-x="941" />

<glyph glyph-name="megusta" unicode="&#xe818;" d="M546-150l-376 360c-3 2-275 243-125 513l2 3a285 285 0 0 0 202 123c127 13 248-64 297-101 44 35 152 108 276 101 85-5 159-46 223-122l1-2c165-238-111-504-123-515z m-446 839c-123-223 109-430 112-432l335-318 332 316c3 4 247 240 115 432-52 61-111 94-176 98-131 8-249-101-250-102l-21-20-22 19c-1 2-135 117-269 103a223 223 0 0 1-157-96z" horiz-adv-x="1098" />

<glyph glyph-name="megusta-seleccion" unicode="&#xe819;" d="M557 729s286 270 512 0c165-235-128-512-128-512l-384-367-385 367s-277 242-128 512c203 273 513 0 513 0z" horiz-adv-x="1119" />

<glyph glyph-name="menu" unicode="&#xe81a;" d="M1259 682h-1259v168h1259z m0-249h-1259v-168h1259z m0-416h-1259v-167h1259z" horiz-adv-x="1259" />

<glyph glyph-name="montañas" unicode="&#xe81b;" d="M0-150l405 676 406-676z m811 0h892l-676 1000-428-647" horiz-adv-x="1703" />

<glyph glyph-name="opciones" unicode="&#xe81c;" d="M500-150a500 500 0 1 0 500 500 501 501 0 0 0-500-500z m0 943a443 443 0 1 1 443-443 444 444 0 0 1-443 443z" horiz-adv-x="1000" />

<glyph glyph-name="paloma" unicode="&#xe81d;" d="M372-150l-372 372 54 54 318-318 891 892 55-54z" horiz-adv-x="1318" />

<glyph glyph-name="postal" unicode="&#xe81e;" d="M1500 850h-1375a125 125 0 0 1-125-125v-750a125 125 0 0 1 125-125h1375a125 125 0 0 1 125 125v750a125 125 0 0 1-125 125z m-1112-875v750h25v-750z m237 88v25h750v-25z m0 125v25h750v-25z m800 350h-325v175h325z" horiz-adv-x="1625" />

<glyph glyph-name="regresar" unicode="&#xe81f;" d="M57 351l597-428v-73l-654 469v63l654 468v-72z" horiz-adv-x="654" />

<glyph glyph-name="reloj" unicode="&#xe820;" d="M500 850a500 500 0 1 1 500-500 500 500 0 0 1-500 500z m0-540a40 40 0 0 0-12 2h0l-211-210-25 25 210 211a40 40 0 0 0 23 49h0v380h30v-380h0a40 40 0 0 0-15-77z" horiz-adv-x="1000" />

<glyph glyph-name="salir" unicode="&#xe821;" d="M953-150l-953 952 48 48 952-952z m-454 453l-48 48-451-452 48-47z m499 500l-47 47-452-451 48-48z" horiz-adv-x="1000" />

<glyph glyph-name="seguir" unicode="&#xe822;" d="M0-150s-4 330 257 401a245 245 0 0 0-82 146c-21 233 167 292 253 292 101 0 265-66 253-292-8-88-82-146-82-146 238-56 257-401 257-401z m796 1000h-33v-130h-121v-31h121v-134h33v134h124v31h-124z" horiz-adv-x="920" />

<glyph glyph-name="subirfoto" unicode="&#xe823;" d="M907-150h-814a93 93 0 0 0-93 93v481a93 93 0 0 0 93 93h814a93 93 0 0 0 93-93v-481a93 93 0 0 0-93-93z m-449 1000l-356-258h103l294 219h3l293-219h103l-356 258z" horiz-adv-x="1000" />

<glyph glyph-name="telefono" unicode="&#xe824;" d="M157 171c-202 233-166 453-125 534a490 490 0 0 0 115 128 85 85 0 0 0 31 15 108 108 0 0 0 77-17c25-13 106-169 106-169a127 127 0 0 0 7-57 106 106 0 0 0-42-53c-18-14-68-47-79-75-19-45-11-64-3-98 8-30 163-240 255-265a111 111 0 0 1 87 8c27 16 23 31 53 55a142 142 0 0 0 80 32c35 0 60-17 108-52a416 416 0 0 0 80-76 100 100 0 0 0 24-37c9-43-37-87-65-113a296 296 0 0 0-72-52c-140-70-315 7-336 17a546 546 0 0 0-160 118c-29 30-81 87-121 133z" horiz-adv-x="932" />

<glyph glyph-name="trespuntos" unicode="&#xe825;" d="M2333 350a500 500 0 1 0-500 500 500 500 0 0 0 500-500z m834 500a500 500 0 1 1 500-500 500 500 0 0 1-500 500z m-2667 0a500 500 0 1 1 500-500 500 500 0 0 1-500 500z" horiz-adv-x="3667" />

<glyph glyph-name="ubicacion" unicode="&#xe826;" d="M296 850a296 296 0 0 1-296-296c0-314 296-704 296-704s296 396 296 704a296 296 0 0 1-296 296z m-3-405c-144 0-144 216 0 216s145-216 0-216z" horiz-adv-x="592" />

<glyph glyph-name="usuario" unicode="&#xe827;" d="M0-150s-5 393 306 478a292 292 0 0 0-98 175c-24 277 200 347 302 347 121 0 317-78 302-347-9-105-98-175-98-175 284-67 306-478 306-478z" horiz-adv-x="1020" />

<glyph glyph-name="v" unicode="&#xe828;" d="M403-17l-356 867-47-18 377-913z m69-134l-95 70 375 931 113-63z" horiz-adv-x="865" />

<glyph glyph-name="0" unicode="&#xe829;" d="M1000 350a500 500 0 1 0-500 500 500 500 0 0 0 500-500z m-320 56q-2 116-46 175a151 151 0 0 1-129 60 150 150 0 0 1-130-62q-45-61-45-181v-102q2-117 46-178a151 151 0 0 1 130-61 149 149 0 0 1 130 62q44 62 44 182z m-46-112q0-97-33-148a105 105 0 0 0-94-50 107 107 0 0 0-96 51q-33 52-33 149v112q0 95 33 144a107 107 0 0 0 95 49 106 106 0 0 0 96-51q32-50 32-148z" horiz-adv-x="1000" />

<glyph glyph-name="1" unicode="&#xe82a;" d="M1000 350a500 500 0 1 0-500 500 500 500 0 0 0 500-500z m-451 307h-7l-194-71v-44l154 57v-512h47z" horiz-adv-x="1000" />

<glyph glyph-name="2" unicode="&#xe82b;" d="M1000 350a500 500 0 1 0-500 500 500 500 0 0 0 500-500z m-310-224h-299l159 180a648 648 0 0 1 87 118 189 189 0 0 1 25 86 145 145 0 0 1-44 112 172 172 0 0 1-122 41 183 183 0 0 1-92-23 156 156 0 0 1-61-62 179 179 0 0 1-22-87h46a132 132 0 0 0 36 95 123 123 0 0 0 93 37 118 118 0 0 0 87-31 115 115 0 0 0 31-86 154 154 0 0 0-18-70 512 512 0 0 0-68-93l-194-220v-36h356z" horiz-adv-x="1000" />

<glyph glyph-name="3" unicode="&#xe82c;" d="M1000 350a500 500 0 1 0-500 500 500 500 0 0 0 500-500z m-557-22h47a166 166 0 0 0 107-30 106 106 0 0 0 37-88 116 116 0 0 0-34-89 134 134 0 0 0-94-31 140 140 0 0 0-97 34 114 114 0 0 0-38 89h-47a150 150 0 0 1 89-143 213 213 0 0 1 93-20 180 180 0 0 1 127 45 153 153 0 0 1 47 118 139 139 0 0 1-27 86 146 146 0 0 1-80 51 156 156 0 0 1 71 52 123 123 0 0 1 26 75 152 152 0 0 1-45 116 170 170 0 0 1-122 42 191 191 0 0 1-87-20 150 150 0 0 1-62-56 152 152 0 0 1-22-80h48a110 110 0 0 0 35 85 127 127 0 0 0 90 32 120 120 0 0 0 88-31 116 116 0 0 0 31-86 104 104 0 0 0-16-57 107 107 0 0 0-46-40 162 162 0 0 0-70-14h-49z" horiz-adv-x="1000" />

<glyph glyph-name="4" unicode="&#xe82d;" d="M1000 350a500 500 0 1 0-500 500 500 500 0 0 0 500-500z m-400 305h-50l-264-398v-27h268v-144h46v144h89v40h-89z m-68-96l20 36v-325h-208z" horiz-adv-x="1000" />

<glyph glyph-name="5" unicode="&#xe82e;" d="M1000 350a500 500 0 1 0-500 500 500 500 0 0 0 500-500z m-623-9a158 158 0 0 0 52 33 180 180 0 0 0 57 8 120 120 0 0 0 95-40 149 149 0 0 0 35-102 172 172 0 0 0-31-110 111 111 0 0 0-92-39 127 127 0 0 0-89 30 135 135 0 0 0-40 88h-44a169 169 0 0 1 53-116 173 173 0 0 1 120-41 160 160 0 0 1 125 49 202 202 0 0 1 45 140 190 190 0 0 1-46 134 158 158 0 0 1-123 50 185 185 0 0 1-107-32l20 193h245v43h-285l-27-277z" horiz-adv-x="1000" />

<glyph glyph-name="6" unicode="&#xe82f;" d="M1000 350a500 500 0 1 0-500 500 500 500 0 0 0 500-500z m-414 310q-128-2-197-86t-69-236v-47a225 225 0 0 1 51-153 167 167 0 0 1 133-60 158 158 0 0 1 148 94 234 234 0 0 1 20 100 200 200 0 0 1-45 136 149 149 0 0 1-120 51 182 182 0 0 1-81-17 159 159 0 0 1-60-51 251 251 0 0 0 65 167 214 214 0 0 0 160 60h5v40z m6-280a163 163 0 0 0 33-108 172 172 0 0 0-33-109 107 107 0 0 0-89-43 122 122 0 0 0-100 46 186 186 0 0 0-38 120v40a126 126 0 0 0 52 67 144 144 0 0 0 83 27 113 113 0 0 0 92-41z" horiz-adv-x="1000" />

<glyph glyph-name="7" unicode="&#xe830;" d="M1000 350a500 500 0 1 0-500 500 500 500 0 0 0 500-500z m-294 259h-374v-40h324l-242-529h49l243 542z" horiz-adv-x="1000" />

<glyph glyph-name="8" unicode="&#xe831;" d="M1000 350a500 500 0 1 0-500 500 500 500 0 0 0 500-500z m-385 247a172 172 0 0 1-120 42 171 171 0 0 1-120-42 145 145 0 0 1-46-113 133 133 0 0 1 25-80 145 145 0 0 1 66-50 158 158 0 0 1-78-55 140 140 0 0 1-29-86 145 145 0 0 1 50-116 195 195 0 0 1 131-43 194 194 0 0 1 132 43 145 145 0 0 1 49 116 136 136 0 0 1-29 87 167 167 0 0 1-79 54 150 150 0 0 1 68 51 130 130 0 0 1 25 80 145 145 0 0 1-45 112z m-23-471a143 143 0 0 0-97-32 143 143 0 0 0-98 32 110 110 0 0 0-37 87 112 112 0 0 0 38 87 140 140 0 0 0 96 34 140 140 0 0 0 97-34 112 112 0 0 0 38-88 109 109 0 0 0-37-86z m-12 279a122 122 0 0 0-86-31 123 123 0 0 0-87 30 104 104 0 0 0-33 80 109 109 0 0 0 33 83 120 120 0 0 0 86 31 120 120 0 0 0 87-32 109 109 0 0 0 34-81 104 104 0 0 0-34-80z" horiz-adv-x="1000" />

<glyph glyph-name="9" unicode="&#xe832;" d="M1000 350a500 500 0 1 0-500 500 500 500 0 0 0 500-500z m-420-172q-53-56-155-57h-16l0-40h8q135 0 200 77t66 231v41q0 110-48 170a160 160 0 0 1-133 60 160 160 0 0 1-90-25 170 170 0 0 1-60-72 237 237 0 0 1-21-102 228 228 0 0 1 20-97 163 163 0 0 1 57-69 149 149 0 0 1 85-25 166 166 0 0 1 80 20 176 176 0 0 1 62 57q-2-112-55-169z m-170 177a170 170 0 0 0-34 108 175 175 0 0 0 35 113 111 111 0 0 0 91 44 116 116 0 0 0 98-48 218 218 0 0 0 36-134v-27a151 151 0 0 0-53-72 137 137 0 0 0-84-28 108 108 0 0 0-89 44z" horiz-adv-x="1000" />

<glyph glyph-name="bandera" unicode="&#xe833;" d="M417 850v-1000h-306a111 111 0 0 0-111 111v778a111 111 0 0 0 111 111z m872 0h-306v-1000h306a111 111 0 0 1 111 111v778a111 111 0 0 1-111 111z m-372 0v-1000h-434v1000z m-117-500a100 100 0 1 1-100-100 100 100 0 0 1 100 100z" horiz-adv-x="1400" />

<glyph glyph-name="ruta" unicode="&#xe834;" d="M74 480c0 3 0 9 0 9l-8 56a348 348 0 0 1-41 101h0a377 377 0 0 1-25 37l154 167s188-131 309 0c121-131 309 0 309 0l154-167q-10-18-19-37h0a860 860 0 0 1-32-102l-8-55s0-6 0-9a504 504 0 0 1 3-130c150-500-221-299-407-500-186 201-556 0-407 500a343 343 0 0 1 18 130m792 9l9 55h-809l8-55m0 0h0m0 0h0m298-54q-92-1-138-59t-47-167v-18a172 172 0 0 1 35-113 113 113 0 0 1 93-44 114 114 0 0 1 89 37 140 140 0 0 1 33 98 140 140 0 0 1-31 94 102 102 0 0 1-82 37 107 107 0 0 1-85-36 144 144 0 0 0 39 93 132 132 0 0 0 92 35h10v43z m-5-204a104 104 0 0 0 20-66 104 104 0 0 0-18-65 64 64 0 0 0-54-24 66 66 0 0 0-56 29 130 130 0 0 0-22 78v19a84 84 0 0 0 78 55 63 63 0 0 0 52-25z m317 204q-92-1-138-59t-47-167v-18a172 172 0 0 1 35-113 113 113 0 0 1 93-43 114 114 0 0 1 89 37 140 140 0 0 1 33 97 140 140 0 0 1-31 94 102 102 0 0 1-82 37 107 107 0 0 1-85-35 144 144 0 0 0 40 94 132 132 0 0 0 93 35h9v43z m-5-204a104 104 0 0 0 20-66 104 104 0 0 0-19-65 64 64 0 0 0-53-25 66 66 0 0 0-55 30 130 130 0 0 0-23 78v19a84 84 0 0 0 78 55 63 63 0 0 0 52-25z m-353 361h18v1l-30 56a40 40 0 0 1 18 14 35 35 0 0 1 7 20 37 37 0 0 1-12 30 52 52 0 0 1-34 10h-44v-132h18v55h30z m-59 118h26a31 31 0 0 0 22-7 24 24 0 0 0 7-19 23 23 0 0 0-8-18 30 30 0 0 0-20-7h-27z m171 14v-89a30 30 0 0 0-7-23 36 36 0 0 0-45 0 30 30 0 0 0-8 23v89h-17v-90a42 42 0 0 1 13-32 49 49 0 0 1 33-11h5a47 47 0 0 1 32 13 42 42 0 0 1 11 31v89z m136 0h-102v-14h42v-118h18v118h42z m98-132h18l-51 132h-15l-50-132h19l12 35h56z m-40 110l22-62h-45z" horiz-adv-x="926" />

<glyph glyph-name="recomendaciones" unicode="&#xe835;" d="M561 184h-381a42 42 0 0 0-42 41v216a42 42 0 0 0 42 42h381a42 42 0 0 0 42-42v-216a42 42 0 0 0-42-41z m-539 116h62a22 22 0 0 1 23 22v89a22 22 0 0 1-23 23h-62a22 22 0 0 1-22-23v-88a22 22 0 0 1 22-23z m265-150h-100v-167h100z m915-300v1000l-563-367v-299z" horiz-adv-x="1202" />

<glyph glyph-name="consejos" unicode="&#xe836;" d="M696 502c0-162-218-335-218-536h-261c0 203-217 344-217 536a348 348 0 1 0 696 0z m-218-594h-261v-58h261z" horiz-adv-x="696" />

<glyph glyph-name="abc" unicode="&#xe837;" d="M1000 691v-682a159 159 0 0 0-159-159h-682a159 159 0 0 0-159 159v682a159 159 0 0 0 159 159h682a159 159 0 0 0 159-159z m-654-517v4a129 129 0 0 0-10 54v113a79 79 0 0 1-27 63 106 106 0 0 1-71 22 131 131 0 0 1-53-10 91 91 0 0 1-37-28 64 64 0 0 1-14-39h57a30 30 0 0 0 12 24 50 50 0 0 0 32 10 43 43 0 0 0 33-12 44 44 0 0 0 11-31v-16h-34a145 145 0 0 1-85-22 71 71 0 0 1-30-62 69 69 0 0 1 24-53 89 89 0 0 1 62-22 88 88 0 0 1 66 29 87 87 0 0 1 6-24z m-149 50a33 33 0 0 0-11 26 35 35 0 0 0 16 31 83 83 0 0 0 48 11h30v-48a54 54 0 0 0-22-22 64 64 0 0 0-32-8 42 42 0 0 0-29 10z m419 76a154 154 0 0 1-26 96 86 86 0 0 1-72 34 82 82 0 0 1-66-29v130h-57v-357h52l2 27a82 82 0 0 1 69-32 85 85 0 0 1 72 35 151 151 0 0 1 26 93z m-56-6a104 104 0 0 0-15-59 48 48 0 0 0-41-20 53 53 0 0 0-52 33v104a52 52 0 0 0 52 31 48 48 0 0 0 41-20 107 107 0 0 0 15-62z m164-60a103 103 0 0 0-15 61v9a101 101 0 0 0 16 60 50 50 0 0 0 43 20 48 48 0 0 0 35-14 52 52 0 0 0 15-35h53a94 94 0 0 1-30 69 103 103 0 0 1-73 26 106 106 0 0 1-84-35 133 133 0 0 1-30-91v-6a136 136 0 0 1 31-95 107 107 0 0 1 83-34 111 111 0 0 1 51 12 96 96 0 0 1 37 32 83 83 0 0 1 15 44h-54a42 42 0 0 0-15-31 51 51 0 0 0-35-12 50 50 0 0 0-43 20z" horiz-adv-x="1000" />

<glyph glyph-name="hashtag" unicode="&#xe838;" d="M428 131h-153l-53-281h-116l53 281h-159v109h179l40 216h-167v108h188l53 286h115l-54-286h155l54 286h114l-53-286h143v-108h-164l-40-216h152v-109h-172l-53-281h-114z m-133 109h154l39 215h-153z" horiz-adv-x="767" />

<glyph glyph-name="mapa" unicode="&#xe839;" d="M0 477l627-627h-473a154 154 0 0 0-154 154z m1000-473v692a154 154 0 0 1-154 154h-77l-426-426 562-562a154 154 0 0 1 95 142z m-846 846a154 154 0 0 1-142-95l244-243 338 338z" horiz-adv-x="1000" />

<glyph glyph-name="pregunta" unicode="&#xe83a;" d="M198 128a353 353 0 0 0 19 128 383 383 0 0 0 87 114 853 853 0 0 1 86 93 219 219 0 0 1 30 59 243 243 0 0 1 10 75 187 187 0 0 1-44 132 162 162 0 0 1-126 48 184 184 0 0 1-129-46 167 167 0 0 1-51-125h-80a231 231 0 0 0 75 178 268 268 0 0 0 186 66q116 0 183-68t67-183a292 292 0 0 0-33-136 589 589 0 0 0-125-149q-76-64-76-186z m-12-225a56 56 0 0 0 14 39 52 52 0 0 0 41 16 54 54 0 0 0 41-16 54 54 0 0 0 15-39 51 51 0 0 0-15-38 55 55 0 0 0-41-15 54 54 0 0 0-41 15 53 53 0 0 0-14 38z" horiz-adv-x="511" />

<glyph glyph-name="ver" unicode="&#xe83b;" d="M2518 139c-330 330-751 511-1187 511h-4a1682 1682 0 0 1-1185-511l-142 142a1879 1879 0 0 0 1326 569h5c489 0 961-202 1329-569z m-888 11a300 300 0 1 1-300-300 300 300 0 0 1 300 300z" horiz-adv-x="2659" />

<glyph glyph-name="descargar" unicode="&#xe83c;" d="M321 100l-32 32v718h65v-718z m0 0l-276 276-45-45 197-197 79-79z m322 231l-45 45-322-321 45-46z m0-417h-643v-64h643z" horiz-adv-x="643" />

<glyph glyph-name="bloquear" unicode="&#xe83d;" d="M1000 350a500 500 0 1 0-500 500 500 500 0 0 0 500-500z m-243 50h-514v-100h514z" horiz-adv-x="1000" />

<glyph glyph-name="d" unicode="&#xe83e;" d="M1000 350a500 500 0 1 0-500 500 500 500 0 0 0 500-500z m-552-305a295 295 0 0 1 144 36 234 234 0 0 1 95 100 327 327 0 0 1 33 151v39a326 326 0 0 1-33 149 238 238 0 0 1-95 100 277 277 0 0 1-140 35h-172v-610z m6 544q89-1 138-58t49-162v-35q0-107-52-165t-145-57h-84v477z" horiz-adv-x="1000" />

<glyph glyph-name="s" unicode="&#xe83f;" d="M1000 350a500 500 0 1 0-500 500 500 500 0 0 0 500-500z m-391-81a83 83 0 0 0 32-70 84 84 0 0 0-34-71q-34-26-98-26a171 171 0 0 0-109 33 105 105 0 0 0-41 86h-80a161 161 0 0 1 29-95 197 197 0 0 1 84-65 286 286 0 0 1 117-24q97 0 155 44a143 143 0 0 1 57 119 153 153 0 0 1-21 81 180 180 0 0 1-64 60 500 500 0 0 1-118 47q-75 22-107 48a79 79 0 0 0-32 63 87 87 0 0 0 33 73 146 146 0 0 0 93 26q64 0 99-32a111 111 0 0 0 35-87h81a171 171 0 0 1-27 93 184 184 0 0 1-76 67 250 250 0 0 1-112 24q-92 0-150-47a147 147 0 0 1-57-119 140 140 0 0 1 47-107q48-43 151-73 82-24 113-48z" horiz-adv-x="1000" />

<glyph glyph-name="vier" unicode="&#xe840;" d="M1000 350a500 500 0 1 0-500 500 500 500 0 0 0 500-500z m-674 305h-87l225-610h72l225 610h-88l-173-503z" horiz-adv-x="1000" />

<glyph glyph-name="www" unicode="&#xe841;" d="M500-150h0a501 501 0 0 0-500 500h0a501 501 0 0 0 500 500h0a501 501 0 0 0 500-500h0a501 501 0 0 0-500-500z m-256 614h-47l-31-143-27 143h-54l48-228h58l30 130 30-130h57l49 228h-55l-26-143z m279 0h-47l-31-143-26 143h-55l49-228h57l30 130 30-130h57l49 228h-55l-26-143z m280 0h-47l-32-143-26 143h-55l49-228h57l30 130 31-130h57l48 228h-54l-27-143z" horiz-adv-x="1000" />

<glyph glyph-name="compartir" unicode="&#xe842;" d="M500 850a500 500 0 1 1 500-500 500 500 0 0 1-500 500z m61-467v96h0v0s-147-13-210-70c-70-64-98-172-81-322l-57-6c-19 169 14 294 100 371 78 69 177 84 248 84v0h0v80l202-117z" horiz-adv-x="1000" />

<glyph glyph-name="l" unicode="&#xe843;" d="M1000 350a500 500 0 1 0-500 500 500 500 0 0 0 500-500z m-604 305h-81v-610h370v66h-289z" horiz-adv-x="1000" />

<glyph glyph-name="j" unicode="&#xe844;" d="M1000 350a500 500 0 1 0-500 500 500 500 0 0 0 500-500z m-388-124a122 122 0 0 0-32-88 108 108 0 0 0-80-31 111 111 0 0 0-83 29 112 112 0 0 0-29 81h-80q0-83 50-130t142-46q87 0 140 50t53 136v432h-81z" horiz-adv-x="1000" />

<glyph glyph-name="m" unicode="&#xe845;" d="M1000 350a500 500 0 1 0-500 500 500 500 0 0 0 500-500z m-803 305v-610h80v238l-8 254 200-492h62l200 494-8-256v-238h80v610h-104l-199-498-200 498z" horiz-adv-x="1000" />

<glyph glyph-name="x" unicode="&#xe846;" d="M1000 350a500 500 0 1 0-500 500 500 500 0 0 0 500-500z m-647 305h-94l193-302-197-308h95l150 238 150-238h95l-197 307 193 303h-95l-146-234z" horiz-adv-x="1000" />
</font>
</defs>
</svg>
